<svg width="20" height="22" viewBox="0 0 20 22" fill="none" xmlns="http://www.w3.org/2000/svg">
<path fill-rule="evenodd" clip-rule="evenodd" d="M3.6 0.7C3.69443 0.574097 3.84262 0.5 4 0.5H16C16.1574 0.5 16.3056 0.574097 16.4 0.7L19.4 4.7C19.4649 4.78655 19.5 4.89181 19.5 5V19C19.5 19.663 19.2366 20.2989 18.7678 20.7678C18.2989 21.2366 17.663 21.5 17 21.5H3C2.33696 21.5 1.70107 21.2366 1.23223 20.7678C0.763392 20.2989 0.5 19.663 0.5 19V5C0.5 4.89181 0.535089 4.78655 0.6 4.7L3.6 0.7ZM4.25 1.5L2 4.5H18L15.75 1.5H4.25ZM18.5 5.5H1.5V19C1.5 19.3978 1.65804 19.7794 1.93934 20.0607C2.22064 20.342 2.60218 20.5 3 20.5H17C17.3978 20.5 17.7794 20.342 18.0607 20.0607C18.342 19.7794 18.5 19.3978 18.5 19V5.5ZM6 8.5C6.27614 8.5 6.5 8.72386 6.5 9C6.5 9.92826 6.86875 10.8185 7.52513 11.4749C8.1815 12.1313 9.07174 12.5 10 12.5C10.9283 12.5 11.8185 12.1313 12.4749 11.4749C13.1313 10.8185 13.5 9.92826 13.5 9C13.5 8.72386 13.7239 8.5 14 8.5C14.2761 8.5 14.5 8.72386 14.5 9C14.5 10.1935 14.0259 11.3381 13.182 12.182C12.3381 13.0259 11.1935 13.5 10 13.5C8.80653 13.5 7.66193 13.0259 6.81802 12.182C5.97411 11.3381 5.5 10.1935 5.5 9C5.5 8.72386 5.72386 8.5 6 8.5Z" fill="#212806"/>
</svg>
