<svg width="184" height="33" viewBox="0 0 184 33" fill="none" xmlns="http://www.w3.org/2000/svg">
<g clip-path="url(#clip0_3709_6942)">
<path fill-rule="evenodd" clip-rule="evenodd" d="M10.8061 16.474C10.7994 10.8334 6.22358 6.26172 0.581421 6.26172V16.4863V16.4864C0.581463 22.1327 5.15984 26.711 10.8061 26.711C16.4524 26.711 21.0307 22.1327 21.0308 16.4864V16.4863V6.26172C15.3886 6.26172 10.8128 10.8334 10.8061 16.474Z" fill="#191E04"/>
<path d="M7.20392 6.29297L10.7901 11.4731L13.9779 6.29297H7.20392Z" fill="#191E04"/>
</g>
<path d="M45.2927 24.6895L47.8866 16.1703L49.0818 11.2623H49.3616L50.5568 16.1703L53.0998 24.6895H58.7707L62.8141 7.65122H58.6436L56.5837 17.3147L55.9989 21.0529H55.7191L54.9308 17.3147L52.108 7.65122H46.4371L43.5889 17.3147L42.8006 21.0529H42.5208L41.936 17.3147L39.8761 7.65122H35.6038L39.6218 24.6895H45.2927ZM70.8952 24.9438C74.9386 24.9438 77.6342 23.0111 77.6342 20.2392V19.9594H73.8197V20.2137C73.8197 21.3072 73.0313 21.8921 70.768 21.8921C68.3013 21.8921 67.3858 21.0529 67.2841 19.0948H77.6596C77.7105 18.6625 77.7613 18.3319 77.7613 17.8742C77.7613 13.8816 74.9895 11.6946 70.8189 11.6946C66.6229 11.6946 63.7493 14.2631 63.7493 18.3319C63.7493 22.8585 66.6483 24.9438 70.8952 24.9438ZM70.7426 14.67C72.9805 14.67 73.9977 15.4074 74.0994 17.0858H67.335C67.513 15.4329 68.4793 14.67 70.7426 14.67ZM83.1935 24.6895V7.65122H79.3789V24.6895H83.1935ZM89.0047 24.6895V7.65122H85.1901V24.6895H89.0047ZM94.5361 24.6895V21.1547H94.765C95.2228 23.6722 96.9012 24.9438 99.8511 24.9438C103.818 24.9438 105.98 22.3499 105.98 18.3319C105.98 14.2631 103.844 11.6946 100.029 11.6946C97.0029 11.6946 95.4516 13.195 95.0193 15.3311H94.8159V7.65122H91.0013V24.6895H94.5361ZM94.8159 18.4082V18.2048C94.8159 15.9923 96.0874 15.1786 98.5541 15.1786C100.995 15.1786 102.114 15.9923 102.114 18.3319C102.114 20.6461 100.995 21.4598 98.5287 21.4598C96.1128 21.4598 94.8159 20.6206 94.8159 18.4082ZM114.33 24.9438C118.374 24.9438 121.069 23.0111 121.069 20.2392V19.9594H117.255V20.2137C117.255 21.3072 116.466 21.8921 114.203 21.8921C111.736 21.8921 110.821 21.0529 110.719 19.0948H121.095C121.145 18.6625 121.196 18.3319 121.196 17.8742C121.196 13.8816 118.424 11.6946 114.254 11.6946C110.058 11.6946 107.184 14.2631 107.184 18.3319C107.184 22.8585 110.083 24.9438 114.33 24.9438ZM114.178 14.67C116.415 14.67 117.433 15.4074 117.534 17.0858H110.77C110.948 15.4329 111.914 14.67 114.178 14.67ZM126.628 10.652V7.65122H122.814V10.652H126.628ZM126.628 24.6895V11.9489H122.814V24.6895H126.628ZM132.44 24.6895V18.2556C132.44 16.094 133.304 15.1277 135.72 15.1277C138.06 15.1277 138.899 15.9923 138.899 18.0267V24.6895H142.713V16.7552C142.713 13.9325 141.061 11.6946 137.577 11.6946C134.245 11.6946 132.719 13.729 132.389 15.8652H132.16V11.9489H128.625V24.6895H132.44ZM150.238 23.3925C153.086 23.3925 154.586 22.0956 154.993 20.2137H155.197V23.0874C155.197 25.5795 154.459 26.0881 152.018 26.0881C149.424 26.0881 148.865 25.6558 148.865 24.2317H145.05C145.05 27.4359 147.644 29.2669 151.764 29.2669C156.316 29.2669 159.011 27.2833 159.011 22.833V11.9489H155.451V15.026H155.248C154.841 12.8135 152.984 11.6946 150.39 11.6946C146.576 11.6946 144.262 13.9833 144.262 17.5436C144.262 21.1292 146.449 23.3925 150.238 23.3925ZM148.102 17.5436C148.102 15.6617 149.17 15.0005 151.611 15.0005C153.976 15.0005 155.197 15.6617 155.197 17.391V17.6707C155.197 19.4254 154.002 20.112 151.56 20.112C149.17 20.112 148.102 19.4254 148.102 17.5436ZM168.798 24.6895L173.426 18.5353H173.706L178.461 24.6895H183.445L176.833 16.3483V16.0686L183.445 7.65122H178.461L173.858 13.729H173.578L168.798 7.65122H163.813L170.45 15.9923V16.2721L163.813 24.6895H168.798Z" fill="#191E04"/>
<defs>
<clipPath id="clip0_3709_6942">
<rect width="20.4494" height="20.4494" fill="white" transform="translate(0.581421 6.26172)"/>
</clipPath>
</defs>
</svg>
